<svg width="59" height="49" viewBox="0 0 59 49" fill="none" xmlns="http://www.w3.org/2000/svg">
<path d="M6.5 18C6.335 18 6.17 18 5.755 17.7525C5.34 17.505 4.68 17.01 4.0925 16.755C3.505 16.5 3.01 16.5 2.5 16.5" stroke="#D28E88" stroke-width="5" stroke-linecap="round"/>
<path d="M15.5 3C15.83 3 23.755 3 36.165 3.165C42.16 3.24471 43.995 4 44.9925 4.4125C48.2293 5.75101 48.6501 13.46 51.3251 19.8975C52.477 22.6697 54.16 26.8 54.335 34.885C54.4239 38.989 53.335 41.99 52.8375 43.655C52.4648 44.9023 51.005 45.165 50.0075 45.3325C47.3632 45.7765 45.67 41.01 44.26 39.3375C40.7554 35.1803 31.88 41.16 21.7 41.335C19.1323 41.3791 17.84 40.5 16.7575 40.7475C14.7511 41.2063 14.34 44.49 11.18 45.7475C10.3954 46.0598 9.68005 45.67 9.09255 45.42C8.50505 45.17 8.01005 44.84 7.59005 44.01C6.56194 41.9783 5.67505 35.88 4.42505 27.56C5.48505 16.19 10.15 9.685 12.815 6.6875C13.83 5.505 14.16 5.01 14.5 4.5" stroke="#D28E88" stroke-width="5" stroke-linecap="round"/>
<path d="M52 17.5C52 17.335 52 17.17 52.4125 16.92C52.825 16.67 53.65 16.34 54.3225 16.005C54.995 15.67 55.49 15.34 56.5 15" stroke="#D28E88" stroke-width="5" stroke-linecap="round"/>
<path d="M9.5 16.5C9.995 17.165 12.32 18.49 19.195 19.415C24.3542 20.1091 34.3 19.5 39.6475 19.335C44.995 19.17 45.49 18.84 45.91 18.4225C46.33 18.005 46.66 17.51 47.0775 17.09C47.495 16.67 47.99 16.34 49 15.5" stroke="#D28E88" stroke-width="5" stroke-linecap="round"/>
<path d="M15 29C15.165 29 15.33 29 15.6625 29.0825C15.995 29.165 16.49 29.33 17 29.5" stroke="#D28E88" stroke-width="5" stroke-linecap="round"/>
<path d="M43 29H44.5" stroke="#D28E88" stroke-width="5" stroke-linecap="round"/>
</svg>
