<svg preserveAspectRatio="xMidYMid meet" viewBox="0 0 265.0431034482759 232.95999999999998" xmlns="http://www.w3.org/2000/svg" version="1.0" style="max-height: 500px" width="265.0431034482759" height="232.95999999999998">

<g stroke="none" fill="currentColor" transform="translate(0.000000,280.000000) scale(0.100000,-0.100000)">
<path d="M721 2321 c-7 -28 -16 -51 -20 -51 -9 0 -31 -68 -31 -93 0 -8 7 -18&#10;16 -21 14 -5 15 -4 5 8 -14 16 -6 40 10 31 12 -8 12 -65 -1 -65 -17 0 -25 5&#10;-23 12 2 4 -4 5 -13 1 -12 -4 -14 -14 -10 -42 10 -55 6 -125 -7 -133 -8 -5 -7&#10;-8 5 -8 9 0 18 -6 21 -12 2 -7 5 6 5 30 0 24 4 57 7 74 5 20 3 33 -5 38 -9 6&#10;-7 11 9 19 14 8 21 8 21 1 0 -5 5 -10 12 -10 6 0 9 3 5 6 -3 4 1 21 10 38 15&#10;29 15 30 0 17 -15 -12 -17 -9 -17 31 0 24 7 53 15 64 14 19 14 19 15 -1 0 -11&#10;5 -27 11 -35 8 -12 9 -10 4 7 -3 12 -12 50 -19 83 l-12 61 -13 -50z"/>
<path d="M922 2220 c0 -14 2 -19 5 -12 2 6 2 18 0 25 -3 6 -5 1 -5 -13z"/>
<path d="M755 2190 c-3 -5 -1 -10 4 -10 6 0 11 5 11 10 0 6 -2 10 -4 10 -3 0&#10;-8 -4 -11 -10z"/>
<path d="M896 2113 c-10 -43 -24 -97 -33 -121 -12 -35 -18 -41 -29 -31 -11 9&#10;-14 8 -14 -5 0 -10 5 -26 10 -37 6 -10 8 -19 6 -19 -3 0 -15 19 -27 42 -17 34&#10;-20 53 -16 100 3 35 1 58 -5 58 -5 0 -6 9 -3 20 5 16 2 20 -19 20 -14 0 -26&#10;-6 -26 -12 0 -7 -3 -24 -7 -37 -4 -17 -3 -22 5 -17 7 4 12 19 12 34 0 21 2 24&#10;10 12 5 -8 7 -23 4 -32 -3 -10 -1 -18 5 -18 6 0 11 -18 11 -41 0 -40 27 -139&#10;40 -149 4 -3 11 -16 15 -30 4 -14 11 -27 15 -30 4 -3 10 -15 14 -27 6 -18 4&#10;-20 -14 -16 -20 5 -28 -11 -10 -22 22 -14 7 -20 -40 -17 -45 4 -50 6 -50 28 0&#10;13 5 24 10 24 6 0 10 -10 10 -22 0 -12 2 -19 5 -16 3 3 2 32 -1 64 -7 55 -8&#10;57 -16 29 -5 -17 -12 -37 -15 -45 -3 -8 -5 -25 -4 -38 2 -20 -1 -23 -26 -20&#10;-26 3 -29 7 -39 68 -11 64 -15 65 -30 5 -8 -33 -8 -33 -27 72 -8 40 -10 70 -6&#10;67 17 -10 19 16 2 35 -16 20 -18 18 -44 -60 -29 -85 -39 -104 -40 -73 0 15 -2&#10;14 -11 -6 -11 -28 -20 -210 -12 -252 6 -32 20 -37 27 -10 3 9 5 1 6 -18 1 -27&#10;4 -31 11 -20 7 11 10 11 10 2 0 -7 4 -11 9 -8 12 8 32 -18 35 -46 1 -13 6 -29&#10;10 -36 4 -7 4 -12 -1 -12 -4 0 -1 -5 7 -10 12 -8 11 -10 -7 -10 -15 0 -23 6&#10;-24 18 0 9 -6 -5 -13 -33 -10 -41 -10 -53 1 -66 7 -8 13 -21 13 -28 0 -7 15 0&#10;35 15 19 14 32 30 29 35 -10 16 3 9 17 -8 7 -10 9 -15 4 -10 -11 9 -55 -31&#10;-55 -50 0 -10 10 -7 33 10 33 25 77 41 77 28 0 -4 7 -8 15 -8 8 0 15 4 15 9 0&#10;14 -38 47 -46 40 -5 -4 -3 0 4 10 19 25 -5 34 -31 11 -22 -18 -22 -18 -4 3 19&#10;23 22 44 6 44 -5 0 4 14 20 32 30 33 34 52 6 28 -20 -17 -28 -8 -27 30 0 18&#10;-3 28 -10 24 -5 -3 -8 -14 -5 -24 2 -10 1 -24 -4 -31 -6 -10 -9 -3 -10 21 -1&#10;24 -3 28 -6 13 -6 -34 -23 -28 -23 8 0 24 4 30 15 25 8 -3 15 -1 15 4 0 6 -7&#10;10 -15 10 -10 0 -15 10 -15 34 0 41 -14 53 -36 32 -19 -19 -31 -21 -16 -3 8&#10;10 6 13 -8 14 -10 1 -21 -6 -23 -15 -3 -12 -5 -10 -6 6 0 12 -5 22 -11 22 -5&#10;0 -10 7 -10 15 0 8 5 15 10 15 6 0 10 -8 10 -17 0 -13 3 -14 12 -5 9 9 8 15&#10;-7 26 -18 13 -18 15 6 90 21 68 40 92 45 61 1 -5 9 -30 18 -54 18 -50 21 -101&#10;5 -101 -6 0 -9 -5 -7 -11 2 -6 7 -10 12 -9 14 3 26 -23 27 -60 2 -33 2 -34 6&#10;-5 5 42 23 83 36 87 7 2 50 1 97 -2 82 -5 85 -6 88 -30 2 -19 0 -21 -7 -11 -7&#10;11 -10 9 -14 -10 -4 -24 -4 -24 -6 -1 -1 25 -21 21 -21 -4 0 -20 30 -30 41&#10;-13 6 10 9 1 9 -26 1 -22 5 -58 10 -80 8 -36 6 171 -3 245 -1 15 4 28 13 32&#10;12 5 11 7 -3 7 -23 1 -17 26 6 26 8 0 19 4 24 9 4 5 3 6 -4 2 -7 -4 -13 -3&#10;-13 3 0 6 -6 8 -13 5 -9 -3 -13 5 -13 26 0 34 26 47 70 36 16 -4 28 -1 33 7 4&#10;8 17 17 27 20 30 11 12 19 -42 19 -56 -1 -61 5 -52 58 l6 35 10 -34 c6 -19 15&#10;-36 21 -38 11 -4 8 15 -13 92 -3 11 -8 39 -11 63 -3 23 -9 42 -13 42 -4 0 -15&#10;-35 -24 -77z m-236 -407 c-7 -7 -10 4 -9 30 1 39 1 39 10 9 5 -18 5 -33 -1&#10;-39z m-85 -107 c-6 -16 -4 -20 6 -14 8 5 10 4 6 0 -15 -17 -37 -13 -37 6 0 11&#10;5 17 10 14 6 -3 10 -1 10 4 0 6 3 11 6 11 3 0 2 -10 -1 -21z m75 -109 c0 -5&#10;-4 -10 -10 -10 -5 0 -10 5 -10 10 0 6 5 10 10 10 6 0 10 -4 10 -10z m-13 -95&#10;c0 -12 -3 -12 -16 -3 -9 7 -18 14 -20 15 -2 2 5 3 16 3 11 0 20 -7 20 -15z"/>
<path d="M770 2160 c0 -5 5 -10 11 -10 5 0 7 5 4 10 -3 6 -8 10 -11 10 -2 0&#10;-4 -4 -4 -10z"/>
<path d="M700 2069 c0 -11 5 -17 10 -14 6 3 10 13 10 21 0 8 -4 14 -10 14 -5&#10;0 -10 -9 -10 -21z"/>
<path d="M740 1999 c0 -5 5 -7 10 -4 6 3 10 8 10 11 0 2 -4 4 -10 4 -5 0 -10&#10;-5 -10 -11z"/>
<path d="M1880 1981 l-21 -30 22 4 c13 3 26 10 30 17 6 10 11 10 20 1 16 -16&#10;-23 -35 -64 -31 -32 3 -32 3 -35 -46 -2 -27 2 -54 7 -59 6 -6 11 -21 11 -34 0&#10;-20 -5 -23 -42 -23 -33 0 -39 -3 -30 -12 7 -7 12 -23 13 -38 0 -15 3 -19 6&#10;-10 11 28 62 48 74 28 4 -6 3 -24 -2 -41 -6 -21 -5 -33 2 -38 7 -4 10 -29 7&#10;-68 -5 -65 -10 -77 -28 -66 -9 5 -11 36 -7 104 3 57 2 86 -3 71 -8 -24 -8 -24&#10;-9 -2 -1 27 -21 30 -21 2 0 -11 -5 -20 -11 -20 -6 0 -7 -5 -2 -12 8 -13 9 -16&#10;12 -40 2 -7 6 -4 11 7 6 14 8 2 7 -37 0 -32 -5 -58 -10 -58 -5 0 -6 11 -3 25&#10;4 14 2 25 -4 25 -5 0 -10 -16 -10 -35 0 -32 -2 -35 -29 -35 -17 0 -32 4 -35 9&#10;-8 12 -46 2 -68 -17 -18 -15 -26 -58 -10 -48 5 3 9 -1 9 -9 0 -8 -3 -16 -6&#10;-16 -3 -1 -21 -3 -39 -5 -33 -4 -33 -3 -30 34 2 21 8 36 15 35 23 -5 29 23 17&#10;87 -7 36 -13 63 -14 60 -5 -16 -4 -73 2 -77 14 -8 8 -43 -7 -43 -18 0 -20 17&#10;-4 22 8 3 6 10 -5 20 -18 18 -22 33 -6 23 16 -10 12 7 -7 27 -15 17 -15 20 -3&#10;28 13 8 13 10 0 10 -13 0 -13 2 -1 9 8 5 20 7 28 4 7 -3 13 0 13 6 0 6 -3 11&#10;-7 11 -11 0 -33 49 -34 74 0 13 -5 8 -11 -14 -5 -19 -16 -42 -23 -50 -8 -9&#10;-12 -25 -8 -38 5 -21 3 -22 -53 -17 -36 4 -64 12 -71 21 -6 9 -14 11 -17 5 -4&#10;-5 -2 -12 2 -15 5 -3 9 -31 9 -61 0 -64 15 -89 33 -56 14 26 30 18 30 -15 0&#10;-20 -5 -24 -30 -24 -41 0 -41 -35 0 -58 26 -15 30 -22 30 -64 0 -27 -5 -49&#10;-12 -52 -7 -3 -3 -3 10 0 19 5 22 2 22 -27 0 -18 2 -30 5 -28 6 7 13 104 14&#10;199 l1 76 37 2 c42 3 36 -13 -7 -21 -21 -4 -20 -4 8 -6 l32 -1 1 -77 c1 -43 4&#10;-66 6 -50 4 22 9 27 34 27 27 0 29 -3 30 -37 1 -39 3 -38 13 10 4 15 12 27 19&#10;26 30 -4 41 3 20 11 -22 9 -32 30 -15 30 5 0 14 12 21 27 l13 28 29 -35 c29&#10;-36 38 -75 18 -82 -6 -2 -9 -13 -7 -23 4 -17 7 -14 18 13 13 35 37 41 115 29&#10;6 -1 9 6 7 16 -2 9 2 17 8 17 5 0 10 5 10 11 0 6 -7 9 -15 5 -10 -3 -15 1 -16&#10;12 -1 47 4 209 10 276 1 5 16 6 35 3 l34 -5 -2 40 c0 25 -6 43 -15 46 -9 3&#10;-11 -2 -6 -17 4 -13 1 -27 -10 -37 -9 -9 -17 -15 -19 -13 -2 2 -9 13 -15 24&#10;-9 14 -11 15 -7 3 3 -10 0 -20 -5 -24 -7 -4 -9 3 -7 17 2 13 9 23 15 22 6 -1&#10;17 4 23 12 11 13 7 15 -26 16 -22 1 -43 1 -48 0 -5 -1 -3 6 5 15 8 10 9 15 3&#10;11 -7 -4 -9 2 -6 21 5 24 6 24 13 7 8 -20 8 -20 8 0 1 15 3 17 10 6 7 -11 11&#10;-10 20 5 10 18 10 18 11 -1 l1 -20 9 20 c8 20 8 20 16 0 7 -17 9 -16 15 9 6&#10;21 3 35 -13 57 -27 36 -32 36 -58 0z m-360 -344 c0 -2 -14 -16 -31 -33 -30&#10;-28 -31 -28 -19 -4 7 14 18 28 24 32 11 8 26 10 26 5z m42 -15 c3 7 5 -1 5&#10;-18 0 -27 -3 -30 -28 -26 -25 4 -27 6 -17 28 8 17 14 21 24 14 8 -8 13 -7 16&#10;2z m264 -131 c-3 -5 1 -11 9 -15 25 -9 17 -24 -10 -18 -28 5 -36 42 -9 42 8 0&#10;13 -4 10 -9z m-337 -43 c-1 -40 -1 -41 -9 -15 -8 26 -4 57 6 57 2 0 4 -19 3&#10;-42z"/>
<path d="M685 1980 c-3 -5 1 -10 9 -10 10 0 16 -9 17 -22 0 -22 1 -22 8 -3 11&#10;27 -19 59 -34 35z"/>
<path d="M1293 1947 c2 -18 9 -42 15 -52 8 -16 10 -12 6 20 -3 22 -6 46 -6 53&#10;-1 6 -5 12 -10 12 -5 0 -7 -15 -5 -33z"/>
<path d="M771 1944 c0 -11 3 -14 6 -6 3 7 2 16 -1 19 -3 4 -6 -2 -5 -13z"/>
<path d="M1965 1930 c3 -5 8 -10 11 -10 2 0 4 5 4 10 0 6 -5 10 -11 10 -5 0&#10;-7 -4 -4 -10z"/>
<path d="M1300 1830 c-6 -24 -17 -40 -25 -40 -18 0 -19 -14 -5 -41 10 -17 7&#10;-19 -30 -19 -39 0 -40 1 -40 33 1 30 1 31 15 13 18 -24 19 -16 4 17 l-11 25&#10;-20 -20 c-17 -17 -18 -24 -9 -44 8 -19 8 -24 -4 -24 -8 0 -15 -4 -15 -10 0 -9&#10;54 -14 152 -13 29 0 38 -5 42 -21 11 -39 7 -56 -13 -56 -11 0 -23 -4 -26 -10&#10;-3 -5 -11 -10 -16 -10 -6 0 -7 5 -4 10 10 16 -78 12 -102 -5 -20 -14 -22 -24&#10;-22 -102 0 -61 -4 -88 -13 -94 -21 -13 -34 27 -21 62 7 17 7 29 2 29 -5 0 -12&#10;-13 -15 -30 -4 -16 -11 -30 -17 -30 -6 0 -7 -3 -4 -6 4 -4 -3 -15 -14 -25 -12&#10;-10 -18 -22 -15 -27 3 -6 -1 -15 -9 -22 -15 -13 -20 -5 -16 28 1 6 -4 12 -12&#10;12 -17 0 -10 60 7 60 6 0 3 5 -6 11 -10 5 -18 22 -18 37 0 15 -5 34 -10 42 -7&#10;11 -10 4 -10 -28 0 -23 -3 -41 -7 -41 -5 1 -15 1 -23 0 -12 -1 -11 -5 4 -16&#10;18 -14 18 -15 2 -15 -17 0 -17 -1 0 -17 17 -17 16 -18 -17 -24 -39 -7 -37 -10&#10;7 -12 25 -2 30 2 32 22 3 39 12 38 12 -2 0 -20 4 -37 8 -37 5 0 14 -11 19 -23&#10;11 -23 43 -30 59 -14 15 15 26 6 13 -10 -8 -9 -9 -14 -3 -10 13 8 27 -19 18&#10;-34 -3 -5 0 -9 5 -9 6 0 11 5 11 10 0 6 6 10 14 10 8 0 18 5 22 12 5 8 0 9&#10;-14 6 -33 -9 -28 18 6 31 l27 11 -27 -5 c-16 -3 -28 -3 -28 1 0 3 18 24 41 46&#10;29 29 39 47 38 66 -1 15 -1 48 -1 75 2 40 5 47 22 47 11 0 20 6 20 13 0 9 2 9&#10;8 0 5 -7 25 -12 47 -10 36 2 40 0 41 -23 0 -14 4 -26 10 -27 5 -1 7 7 6 19 -2&#10;11 2 25 10 29 9 6 10 9 1 9 -15 0 -7 87 10 108 8 11 0 12 -41 10 -52 -4 -52&#10;-4 -52 25 0 21 4 28 15 24 11 -5 12 -1 7 16 -9 27 -9 48 1 65 5 6 4 12 -2 12&#10;-6 0 -15 -18 -21 -40z m-103 -312 c-3 -7 -5 -2 -5 12 0 14 2 19 5 13 2 -7 2&#10;-19 0 -25z m0 -60 c-3 -8 -6 -5 -6 6 -1 11 2 17 5 13 3 -3 4 -12 1 -19z"/>
<path d="M1378 1811 c-9 -34 -12 -59 -8 -56 5 3 10 0 12 -7 3 -7 12 -9 22 -5&#10;15 6 17 15 11 60 -10 75 -20 77 -37 8z"/>
<path d="M940 1839 c0 -5 5 -7 10 -4 6 3 10 8 10 11 0 2 -4 4 -10 4 -5 0 -10&#10;-5 -10 -11z"/>
<path d="M691 1804 c0 -11 3 -14 6 -6 3 7 2 16 -1 19 -3 4 -6 -2 -5 -13z"/>
<path d="M960 1799 c0 -24 23 -21 28 4 2 10 -3 17 -12 17 -10 0 -16 -9 -16&#10;-21z"/>
<path d="M1095 1805 c-17 -13 -18 -19 -8 -45 11 -30 7 -36 -22 -30 -5 1 -25 2&#10;-44 2 -24 0 -35 5 -38 19 -3 10 -13 19 -23 19 -10 0 -21 8 -23 18 -3 11 -5 7&#10;-6 -10 -1 -21 3 -25 18 -21 15 4 20 -1 23 -23 3 -26 6 -27 53 -26 28 0 60 3&#10;73 6 12 3 22 0 22 -5 0 -6 5 -7 10 -4 14 9 12 25 -2 23 -8 -2 -14 10 -16 31&#10;-2 21 0 31 7 26 7 -3 11 2 11 14 0 25 -8 26 -35 6z"/>
<path d="M570 1780 c0 -11 4 -20 10 -20 5 0 7 -8 4 -17 -5 -15 -4 -16 5 -3 16&#10;22 14 60 -4 60 -8 0 -15 -9 -15 -20z"/>
<path d="M1999 1778 c0 -2 -2 -12 -4 -23 -2 -11 -7 -32 -11 -47 -4 -18 -2 -28&#10;5 -28 5 0 8 -7 5 -15 -4 -8 -10 -12 -15 -9 -5 3 -9 -2 -9 -10 0 -9 5 -16 10&#10;-16 6 0 10 -42 10 -105 0 -58 -4 -105 -9 -105 -13 0 -21 -40 -8 -41 7 0 31 0&#10;55 1 36 1 42 -1 42 -19 0 -12 -3 -21 -7 -21 -5 0 -14 -4 -22 -9 -12 -8 -11&#10;-12 4 -27 17 -17 17 -18 -1 -25 -11 -4 -13 -8 -6 -8 7 -1 11 -5 7 -11 -3 -5&#10;-13 -6 -22 -3 -11 4 -14 3 -9 -5 4 -7 18 -12 32 -12 13 0 24 -3 24 -8 0 -4&#10;-13 -7 -30 -7 -16 0 -29 -4 -29 -9 0 -5 -5 -13 -13 -17 -9 -6 -5 -9 14 -9 14&#10;0 29 -6 31 -12 4 -9 6 -8 6 3 1 8 -4 20 -11 27 -9 9 -8 12 5 12 10 0 20 -7 23&#10;-15 4 -8 10 -13 14 -10 7 4 7 25 1 113 -1 7 -6 10 -13 6 -6 -4 -8 -3 -5 4 8&#10;11 47 5 47 -8 0 -4 8 -10 18 -12 12 -4 18 1 19 13 1 11 -6 19 -20 21 -16 2&#10;-23 11 -25 32 -2 18 0 26 7 22 7 -5 9 4 4 26 -7 37 -13 49 -13 25 0 -9 -9 -21&#10;-20 -27 -14 -7 -20 -7 -20 0 0 5 -14 10 -31 10 l-30 0 2 148 c1 81 6 162 10&#10;180 4 17 3 32 -2 32 -5 0 -9 -1 -10 -2z"/>
<path d="M545 1740 c4 -6 11 -8 16 -5 14 9 11 15 -7 15 -8 0 -12 -5 -9 -10z"/>
<path d="M1411 1714 c0 -11 3 -14 6 -6 3 7 2 16 -1 19 -3 4 -6 -2 -5 -13z"/>
<path d="M1918 1705 c-3 -14 -2 -28 2 -30 4 -3 10 9 12 25 5 36 -8 40 -14 5z"/>
<path d="M1956 1712 c-4 -13 -5 -26 -2 -29 10 -11 18 4 14 29 l-4 23 -8 -23z"/>
<path d="M575 1700 c3 -5 8 -10 11 -10 2 0 4 5 4 10 0 6 -5 10 -11 10 -5 0 -7&#10;-4 -4 -10z"/>
<path d="M706 1673 c-3 -4 -6 -15 -6 -25 0 -24 33 -21 38 3 3 17 -21 33 -32&#10;22z"/>
<path d="M925 1655 c0 -17 6 -25 18 -25 12 0 17 8 16 28 l-1 27 -8 -25 c-8&#10;-24 -8 -24 -9 -2 -1 30 -16 28 -16 -3z"/>
<path d="M1033 1673 c-7 -2 -12 -14 -12 -26 1 -18 2 -19 6 -4 5 18 5 18 19 0&#10;12 -17 13 -16 14 10 0 27 -4 30 -27 20z"/>
<path d="M1111 1666 c-9 -11 -7 -15 9 -19 22 -6 35 7 25 23 -9 14 -20 13 -34&#10;-4z"/>
<path d="M1292 1660 c0 -14 2 -19 5 -12 2 6 2 18 0 25 -3 6 -5 1 -5 -13z"/>
<path d="M1312 1660 c0 -14 2 -19 5 -12 2 6 2 18 0 25 -3 6 -5 1 -5 -13z"/>
<path d="M750 1650 c0 -21 16 -26 39 -11 18 11 5 31 -20 31 -12 0 -19 -7 -19&#10;-20z m30 0 c0 -5 -5 -10 -11 -10 -5 0 -7 5 -4 10 3 6 8 10 11 10 2 0 4 -4 4&#10;-10z"/>
<path d="M1202 1650 c0 -14 2 -19 5 -12 2 6 2 18 0 25 -3 6 -5 1 -5 -13z"/>
<path d="M1221 1654 c0 -11 3 -14 6 -6 3 7 2 16 -1 19 -3 4 -6 -2 -5 -13z"/>
<path d="M1251 1654 c0 -11 3 -14 6 -6 3 7 2 16 -1 19 -3 4 -6 -2 -5 -13z"/>
<path d="M1331 1654 c0 -11 3 -14 6 -6 3 7 2 16 -1 19 -3 4 -6 -2 -5 -13z"/>
<path d="M1910 1649 c0 -5 5 -7 10 -4 6 3 10 8 10 11 0 2 -4 4 -10 4 -5 0 -10&#10;-5 -10 -11z"/>
<path d="M1905 1600 c3 -5 10 -10 16 -10 5 0 9 5 9 10 0 6 -7 10 -16 10 -8 0&#10;-12 -4 -9 -10z"/>
<path d="M1070 1580 c0 -11 5 -20 10 -20 6 0 10 9 10 20 0 11 -4 20 -10 20 -5&#10;0 -10 -9 -10 -20z"/>
<path d="M941 1574 c0 -11 3 -14 6 -6 3 7 2 16 -1 19 -3 4 -6 -2 -5 -13z"/>
<path d="M1020 1576 c0 -8 4 -17 9 -20 10 -7 23 19 14 28 -11 11 -23 6 -23 -8z"/>
<path d="M1130 1575 c0 -9 6 -12 15 -9 8 4 15 10 15 15 0 5 -7 9 -15 9 -8 0&#10;-15 -7 -15 -15z"/>
<path d="M1232 1548 c2 -13 8 -23 13 -23 6 0 11 10 13 23 2 15 -2 22 -13 22&#10;-11 0 -15 -7 -13 -22z"/>
<path d="M1292 1550 c0 -14 2 -19 5 -12 2 6 2 18 0 25 -3 6 -5 1 -5 -13z"/>
<path d="M1311 1554 c0 -11 3 -14 6 -6 3 7 2 16 -1 19 -3 4 -6 -2 -5 -13z"/>
<path d="M520 1528 c0 -23 3 -29 9 -19 8 12 4 51 -5 51 -2 0 -4 -15 -4 -32z"/>
<path d="M1950 1541 c0 -6 5 -13 10 -16 6 -3 10 1 10 9 0 9 -4 16 -10 16 -5 0&#10;-10 -4 -10 -9z"/>
<path d="M421 1521 c-1 -16 -5 -21 -16 -17 -17 6 -21 -9 -4 -19 13 -9 59 3 59&#10;15 0 5 -6 7 -14 4 -9 -4 -16 3 -19 18 l-4 23 -2 -24z"/>
<path d="M830 1524 c0 -8 5 -12 10 -9 6 3 10 1 10 -5 0 -6 4 -9 10 -5 13 8 1&#10;35 -16 35 -8 0 -14 -7 -14 -16z"/>
<path d="M760 1518 c0 -14 18 -17 28 -5 8 10 6 13 -9 13 -10 0 -19 -4 -19 -8z"/>
<path d="M942 1490 c0 -19 2 -27 5 -17 2 9 2 25 0 35 -3 9 -5 1 -5 -18z"/>
<path d="M1331 1466 c-31 -32 -31 -32 -22 -102 4 -38 9 -61 10 -51 1 13 10 17&#10;38 17 50 0 30 16 -24 19 -18 1 -16 66 2 81 12 10 15 10 15 -1 0 -20 18 2 25&#10;32 10 40 -8 42 -44 5z"/>
<path d="M1966 1485 c-3 -9 -6 -26 -5 -38 1 -14 4 -9 9 13 9 37 7 52 -4 25z"/>
<path d="M1252 1475 c-11 -12 -10 -15 3 -15 8 0 15 7 15 15 0 18 -2 18 -18 0z"/>
<path d="M761 1458 c0 -13 3 -17 6 -9 5 11 7 11 15 0 7 -11 8 -9 6 5 -4 29&#10;-28 32 -27 4z"/>
<path d="M852 1460 c0 -14 2 -19 5 -12 2 6 2 18 0 25 -3 6 -5 1 -5 -13z"/>
<path d="M1300 1469 c0 -5 5 -7 10 -4 6 3 10 8 10 11 0 2 -4 4 -10 4 -5 0 -10&#10;-5 -10 -11z"/>
<path d="M1541 1464 c0 -11 3 -14 6 -6 3 7 2 16 -1 19 -3 4 -6 -2 -5 -13z"/>
<path d="M465 1461 c-11 -5 -35 -7 -52 -6 -18 1 -33 -2 -33 -7 0 -4 9 -8 20&#10;-8 38 0 20 -18 -31 -30 -27 -7 -63 -23 -79 -36 -15 -13 -32 -24 -36 -24 -5 1&#10;4 12 21 25 28 23 29 26 13 41 -10 10 -35 18 -64 19 -38 1 -48 -2 -52 -17 -2&#10;-10 -13 -18 -23 -18 -23 0 -25 -16 -3 -24 8 -3 27 2 42 12 14 9 23 11 19 5&#10;-13 -20 5 -15 31 10 l25 22 -12 -23 -12 -23 28 17 28 18 -19 -22 c-11 -13 -26&#10;-20 -34 -17 -8 3 -27 -6 -42 -19 l-29 -23 25 0 c13 0 27 3 30 8 3 5 10 9 16 9&#10;6 0 3 -10 -8 -22 -13 -15 -5 -12 25 10 25 18 49 32 53 32 18 0 6 -17 -23 -34&#10;-17 -10 -28 -20 -26 -23 3 -2 17 3 31 12 14 9 30 13 37 9 23 -14 69 -14 69 0&#10;0 8 -11 12 -30 11 -35 -2 -35 14 -1 31 16 8 19 13 9 17 -13 5 14 11 39 8 6 -1&#10;14 6 16 16 4 16 5 16 6 -1 0 -10 -6 -24 -15 -31 -11 -8 -14 -19 -9 -34 7 -22&#10;7 -22 28 -4 11 10 17 13 14 7 -4 -7 1 -14 11 -16 22 -6 62 24 62 47 0 9 5 13&#10;10 10 6 -3 10 1 10 9 0 13 -3 14 -19 4 -11 -7 -18 -15 -15 -19 2 -4 0 -10 -6&#10;-14 -5 -3 -10 -1 -10 5 0 6 -6 17 -12 24 -11 11 -15 11 -25 -3 -11 -14 -12&#10;-11 -13 17 0 25 4 32 20 32 11 0 20 5 20 10 0 6 -1 10 -2 9 -2 0 -12 -4 -23&#10;-8z m-265 -41 c0 -5 -5 -10 -11 -10 -5 0 -7 5 -4 10 3 6 8 10 11 10 2 0 4 -4&#10;4 -10z m150 -34 c0 -3 -4 -8 -10 -11 -5 -3 -10 -1 -10 4 0 6 5 11 10 11 6 0&#10;10 -2 10 -4z m-120 -31 c-7 -8 -18 -15 -24 -15 -6 0 -2 7 8 15 25 19 32 19 16&#10;0z"/>
<path d="M832 1450 c0 -14 2 -19 5 -12 2 6 2 18 0 25 -3 6 -5 1 -5 -13z"/>
<path d="M490 1424 c0 -8 5 -12 10 -9 6 3 10 10 10 16 0 5 -4 9 -10 9 -5 0&#10;-10 -7 -10 -16z"/>
<path d="M892 1410 c0 -14 2 -19 5 -12 2 6 2 18 0 25 -3 6 -5 1 -5 -13z"/>
<path d="M1211 1418 c-1 -9 4 -20 9 -23 8 -5 8 -11 0 -20 -7 -9 -7 -15 2 -22&#10;27 -21 36 -22 49 -6 12 14 11 15 -9 9 -23 -8 -25 5 -7 47 4 10 5 21 1 24 -3 4&#10;-6 1 -6 -5 0 -16 -27 -15 -33 1 -3 7 -6 6 -6 -5z"/>
<path d="M1680 1391 c0 -18 5 -28 15 -28 9 0 15 9 15 23 0 12 -7 24 -15 28&#10;-11 4 -15 -2 -15 -23z"/>
<path d="M1742 1390 c0 -14 2 -19 5 -12 2 6 2 18 0 25 -3 6 -5 1 -5 -13z"/>
<path d="M1858 1404 c-5 -4 -8 -16 -8 -28 0 -14 3 -17 11 -9 6 6 9 19 7 28 -1&#10;9 -6 13 -10 9z"/>
<path d="M1800 1375 c0 -18 4 -23 15 -19 8 4 15 15 15 25 0 10 -7 19 -15 19&#10;-9 0 -15 -9 -15 -25z"/>
<path d="M950 1381 c0 -5 9 -13 20 -16 11 -3 20 -10 20 -15 0 -11 -39 -20 -46&#10;-9 -3 5 -13 9 -22 9 -12 -1 -10 -5 8 -15 14 -7 25 -17 25 -22 1 -10 24 -50 25&#10;-43 8 36 7 41 -6 36 -8 -3 -12 -2 -9 3 3 6 14 9 25 8 10 -1 16 -5 14 -9 -3 -4&#10;0 -8 7 -8 7 0 5 -8 -7 -22 -10 -12 -14 -18 -7 -15 6 4 13 2 15 -4 2 -6 12 0&#10;23 13 11 13 13 17 5 11 -8 -7 -19 -13 -25 -13 -5 1 1 10 14 20 l23 20 -43 40&#10;c-44 40 -59 48 -59 31z"/>
<path d="M1401 1374 c0 -11 3 -14 6 -6 3 7 2 16 -1 19 -3 4 -6 -2 -5 -13z"/>
<path d="M1421 1374 c0 -11 3 -14 6 -6 3 7 2 16 -1 19 -3 4 -6 -2 -5 -13z"/>
<path d="M1542 1370 c0 -14 2 -19 5 -12 2 6 2 18 0 25 -3 6 -5 1 -5 -13z"/>
<path d="M179 1363 c-13 -16 -12 -17 4 -4 9 7 17 15 17 17 0 8 -8 3 -21 -13z"/>
<path d="M1916 1364 c-4 -9 -4 -19 -1 -22 2 -3 7 3 11 12 4 9 4 19 1 22 -2 3&#10;-7 -3 -11 -12z"/>
<path d="M1942 1360 c0 -14 2 -19 5 -12 2 6 2 18 0 25 -3 6 -5 1 -5 -13z"/>
<path d="M1621 1354 c0 -11 3 -14 6 -6 3 7 2 16 -1 19 -3 4 -6 -2 -5 -13z"/>
<path d="M793 1350 c-30 -12 -29 -15 6 -16 21 -1 28 2 24 12 -3 8 -6 14 -7 13&#10;0 0 -11 -4 -23 -9z"/>
<path d="M1652 1325 c0 -16 2 -22 5 -12 2 9 2 23 0 30 -3 6 -5 -1 -5 -18z"/>
<path d="M308 1319 c-15 -8 -15 -13 -5 -23 13 -14 44 -13 59 2 6 6 3 12 -6 15&#10;-8 3 -18 2 -21 -3 -4 -6 -11 -10 -17 -10 -7 0 -6 6 2 15 14 17 12 18 -12 4z"/>
<path d="M660 1305 c-13 -14 -19 -25 -14 -25 11 0 47 40 41 46 -2 2 -14 -7&#10;-27 -21z"/>
<path d="M860 1313 c0 -10 12 -23 26 -30 22 -10 25 -10 20 3 -3 9 -6 17 -6 20&#10;0 2 -7 0 -17 -3 -10 -4 -14 -2 -9 5 3 6 2 13 -4 17 -5 3 -10 -2 -10 -12z"/>
<path d="M1061 1313 c-5 -11 -6 -25 -1 -33 7 -12 10 -12 16 3 3 9 12 17 20 17&#10;8 0 14 5 14 12 0 6 -3 8 -7 5 -3 -4 -12 -2 -19 4 -9 7 -15 5 -23 -8z"/>
<path d="M1216 1322 c-4 -7 -16 -12 -26 -12 -10 0 -22 -5 -25 -10 -4 -7 3 -9&#10;19 -6 14 3 26 0 26 -5 0 -5 -6 -9 -13 -9 -13 0 -15 -5 -19 -51 -2 -16 -7 -19&#10;-28 -14 l-25 6 23 -16 c26 -19 55 -13 46 9 -5 13 5 27 57 82 18 19 19 22 5 27&#10;-11 4 -16 1 -17 -11 0 -14 -2 -14 -8 2 -5 14 -10 16 -15 8z"/>
<path d="M1683 1299 c-7 -9 -9 -20 -3 -29 12 -19 22 -7 18 21 -2 19 -5 20 -15&#10;8z"/>
<path d="M1740 1299 c0 -5 5 -7 10 -4 6 3 10 8 10 11 0 2 -4 4 -10 4 -5 0 -10&#10;-5 -10 -11z"/>
<path d="M1800 1290 c0 -13 5 -18 15 -14 8 4 15 12 15 20 0 8 -7 14 -15 14 -8&#10;0 -15 -9 -15 -20z"/>
<path d="M1861 1294 c0 -11 3 -14 6 -6 3 7 2 16 -1 19 -3 4 -6 -2 -5 -13z"/>
<path d="M403 1288 c-13 -6 -23 -15 -23 -20 0 -12 14 -10 29 5 10 8 12 8 7 0&#10;-3 -6 -2 -14 4 -18 5 -3 10 -2 10 4 0 5 3 16 6 25 7 18 -2 19 -33 4z"/>
<path d="M1401 1284 c0 -11 3 -14 6 -6 3 7 2 16 -1 19 -3 4 -6 -2 -5 -13z"/>
<path d="M1610 1286 c0 -9 5 -16 10 -16 6 0 10 4 10 9 0 6 -4 13 -10 16 -5 3&#10;-10 -1 -10 -9z"/>
<path d="M356 1271 c-4 -7 -5 -15 -2 -18 9 -9 19 4 14 18 -4 11 -6 11 -12 0z"/>
<path d="M485 1269 c-4 -6 -5 -12 -2 -15 2 -3 7 2 10 11 7 17 1 20 -8 4z"/>
<path d="M510 1261 c0 -14 5 -19 15 -15 10 4 15 0 16 -12 0 -12 3 -14 6 -6 3&#10;8 -4 22 -16 33 -21 20 -21 20 -21 0z"/>
<path d="M1278 1273 c-26 -4 -40 -23 -17 -23 5 0 8 -4 5 -9 -3 -5 1 -15 10&#10;-22 13 -11 14 -9 9 14 -6 21 -3 27 8 27 9 0 19 5 22 10 3 6 3 9 -2 9 -4 -1&#10;-20 -4 -35 -6z"/>
<path d="M1541 1273 c0 -6 -4 -20 -7 -30 -5 -14 -4 -15 5 -7 7 7 11 20 8 30&#10;-3 11 -5 14 -6 7z"/>
<path d="M2105 1270 c-3 -5 3 -10 14 -10 12 0 21 5 21 10 0 6 -6 10 -14 10 -8&#10;0 -18 -4 -21 -10z"/>
<path d="M450 1256 c0 -9 5 -16 10 -16 6 0 10 4 10 9 0 6 -4 13 -10 16 -5 3&#10;-10 -1 -10 -9z"/>
<path d="M2133 1253 c-23 -4 -32 -23 -12 -23 8 0 8 -4 1 -13 -14 -16 11 -52&#10;29 -41 8 4 10 3 5 -4 -4 -7 -16 -17 -28 -23 -13 -7 -18 -7 -14 0 4 5 -3 15&#10;-14 21 -16 9 -22 8 -27 -6 -9 -25 41 -62 82 -61 32 1 32 1 11 19 -19 16 -20&#10;17 -2 18 11 0 16 5 13 13 -3 8 3 14 16 14 15 2 17 -1 8 -10 -6 -6 -11 -15 -11&#10;-19 0 -12 28 -10 36 4 5 7 3 8 -6 3 -10 -6 -12 -4 -7 9 7 17 3 20 -46 31 -23&#10;5 -26 9 -17 20 8 9 8 15 0 20 -8 5 -8 11 1 21 6 8 10 13 8 13 -2 -1 -14 -4&#10;-26 -6z"/>
<path d="M600 1237 c14 -8 27 -12 30 -10 7 6 -23 23 -40 23 -8 0 -4 -6 10 -13z"/>
<path d="M1625 1240 c-28 -5 -31 -9 -36 -55 -6 -52 -2 -76 11 -55 4 7 13 -6&#10;21 -34 10 -36 18 -46 34 -46 12 0 26 5 31 10 7 7 17 3 32 -10 11 -11 26 -20&#10;31 -20 6 0 15 -8 21 -17 8 -13 13 -14 16 -5 3 6 10 10 15 6 5 -3 12 1 15 10 3&#10;8 11 13 18 10 6 -2 12 5 13 16 1 12 -6 24 -15 27 -27 10 -32 24 -32 91 0 48&#10;-3 62 -15 62 -11 0 -13 -8 -9 -32 14 -86 27 -127 41 -132 12 -5 13 -9 3 -21&#10;-10 -12 -14 -12 -26 -1 -7 8 -23 12 -34 9 -12 -3 -20 0 -20 6 0 7 -4 9 -10 6&#10;-11 -7 -14 87 -3 98 3 4 13 1 22 -6 14 -10 14 -10 3 4 -10 13 -9 19 3 29 14&#10;11 13 14 -2 26 -27 20 -38 17 -41 -13 -1 -16 -7 -29 -12 -31 -6 -2 -10 -8 -10&#10;-13 0 -6 5 -7 10 -4 6 4 10 -10 10 -35 0 -34 -3 -41 -16 -36 -8 3 -12 2 -9 -4&#10;3 -6 -3 -10 -13 -10 -24 0 -30 19 -26 83 3 50 20 76 44 70 13 -4 13 -3 0 6 -8&#10;5 -17 8 -21 5 -4 -2 -9 -1 -11 4 -1 4 -16 5 -33 2z m10 -20 c3 -5 1 -10 -4&#10;-10 -6 0 -11 5 -11 10 0 6 2 10 4 10 3 0 8 -4 11 -10z"/>
<path d="M1307 1233 c-12 -11 -8 -43 5 -43 6 0 20 -7 30 -17 17 -15 18 -15 18&#10;8 1 23 1 23 15 5 8 -11 27 -21 42 -23 47 -7 57 -9 75 -17 10 -4 30 -3 45 3&#10;l28 11 -29 -5 c-35 -7 -66 17 -66 52 0 12 -6 23 -12 23 -7 1 -37 2 -65 4 -40&#10;2 -53 0 -53 -10 0 -8 -7 -14 -16 -14 -10 0 -14 6 -10 15 6 16 3 19 -7 8z m146&#10;-27 c3 -8 3 -17 0 -20 -12 -11 -51 -6 -62 8 -10 12 -8 15 11 19 41 8 46 7 51&#10;-7z"/>
<path d="M1816 1225 c4 -8 10 -15 16 -15 5 0 7 4 4 9 -4 5 0 12 6 14 7 3 3 6&#10;-9 6 -16 1 -21 -3 -17 -14z"/>
<path d="M1891 1230 c-1 -8 3 -29 8 -47 6 -21 5 -35 -2 -43 -9 -10 -9 -11 0&#10;-6 6 3 14 0 17 -6 3 -7 3 7 0 32 -7 49 -22 95 -23 70z"/>
<path d="M782 1205 c-16 -13 -32 -22 -36 -18 -3 3 -6 1 -6 -5 0 -17 20 -15 41&#10;4 18 16 44 11 34 -7 -4 -5 -1 -9 5 -9 8 0 9 7 5 18 -4 9 -8 23 -8 30 0 16 -1&#10;16 -35 -13z"/>
<path d="M1013 1206 c-35 -12 -65 -36 -46 -36 7 0 14 4 17 9 10 16 56 20 56 5&#10;0 -8 5 -14 10 -14 16 0 12 -56 -5 -70 -38 -32 12 -51 51 -20 18 14 18 14 4 -4&#10;-13 -16 -12 -20 3 -31 9 -6 13 -16 9 -20 -4 -5 -1 -5 6 -1 7 4 10 11 7 16 -3&#10;4 3 14 13 21 15 13 16 12 4 -3 -12 -15 -11 -17 7 -15 11 0 19 4 19 7 -2 19 4&#10;29 20 33 16 4 16 5 0 6 -10 0 -18 4 -18 9 0 4 -9 13 -20 20 -17 10 -20 10 -20&#10;-3 0 -8 8 -15 17 -15 13 0 14 -3 5 -12 -9 -9 -15 -8 -25 6 -12 16 -14 16 -42&#10;-6 -17 -12 -24 -15 -18 -7 7 9 9 20 5 24 -4 5 -1 5 6 1 13 -8 17 15 5 28 -5 4&#10;-15 25 -23 45 -15 37 -16 38 -47 27z"/>
<path d="M710 1199 c0 -6 -7 -9 -15 -5 -8 3 -15 1 -15 -4 0 -14 22 -12 44 5&#10;17 13 18 15 3 15 -9 0 -17 -5 -17 -11z"/>
<path d="M854 1163 c10 -11 36 -12 36 -2 0 5 -10 9 -22 9 -12 0 -18 -3 -14 -7z"/>
<path d="M2260 1160 c0 -5 8 -6 17 -3 12 5 15 2 10 -9 -6 -17 20 -34 32 -22 3&#10;4 1 9 -6 11 -7 2 -9 11 -6 19 4 10 -2 14 -21 14 -14 0 -26 -4 -26 -10z"/>
<path d="M2004 1145 c-4 -8 -9 -13 -13 -11 -3 2 -13 -3 -21 -12 -15 -17 -17&#10;-17 35 4 8 3 15 2 15 -4 0 -5 -9 -12 -21 -15 -28 -7 -15 -27 14 -21 73 16 69&#10;17 62 -16 -4 -19 -3 -30 4 -30 6 0 11 12 11 28 0 30 -28 61 -50 54 -9 -3 -11&#10;1 -7 11 3 9 -1 18 -9 21 -8 3 -17 -1 -20 -9z"/>
<path d="M899 1130 c-17 -14 -20 -19 -9 -20 8 0 21 9 28 20 15 25 11 25 -19 0z"/>
<path d="M952 1110 c-24 -15 -39 -31 -34 -34 5 -3 17 3 27 14 10 11 23 20 28&#10;20 6 0 -2 -15 -19 -32 l-29 -33 35 33 c39 35 64 44 35 12 -27 -30 -12 -34 15&#10;-5 13 14 18 25 12 25 -7 0 -12 7 -12 15 0 20 -8 18 -58 -15z"/>
<path d="M2337 1134 c-16 -16 -5 -24 33 -24 22 0 40 -5 40 -11 0 -5 5 -7 10&#10;-4 22 13 8 25 -29 25 -22 0 -41 5 -43 11 -2 5 -7 7 -11 3z"/>
<path d="M1557 1123 c-4 -3 -7 -13 -7 -22 1 -13 3 -13 11 2 11 19 8 33 -4 20z"/>
<path d="M1890 1100 c-8 -5 -15 -24 -15 -44 0 -30 2 -33 18 -24 17 9 53 6 130&#10;-8 15 -3 27 -1 27 5 0 5 -12 11 -27 13 -28 4 -28 4 7 16 31 11 32 11 5 7 -123&#10;-21 -163 -17 -134 12 16 16 7 35 -11 23z"/>
<path d="M1349 1088 c-8 -7 -21 -21 -28 -30 -11 -15 -11 -18 3 -18 9 0 16 7&#10;16 15 0 24 28 30 49 11 13 -12 21 -14 26 -7 3 6 -1 11 -10 11 -8 0 -18 7 -21&#10;15 -7 18 -16 19 -35 3z"/>
<path d="M1589 1088 c15 -21 31 -23 31 -6 0 6 -3 8 -7 5 -3 -4 -13 -1 -22 6&#10;-14 11 -14 10 -2 -5z"/>
<path d="M2155 1090 c-4 -6 3 -10 14 -10 25 0 27 6 6 13 -8 4 -17 2 -20 -3z"/>
<path d="M855 1070 c3 -6 -5 -10 -19 -10 -14 0 -28 -5 -32 -12 -11 -18 -12&#10;-68 -1 -68 5 0 7 10 4 22 -8 29 9 48 44 48 31 0 39 14 13 24 -8 3 -12 2 -9 -4z"/>
<path d="M1435 1062 c6 -4 10 -16 10 -27 0 -16 7 -20 33 -20 17 0 32 4 32 9 0&#10;4 -11 6 -25 4 -21 -4 -25 -1 -25 18 0 16 -6 24 -17 24 -10 0 -14 -4 -8 -8z"/>
<path d="M1216 1034 c-6 -16 2 -18 22 -5 11 7 11 9 -1 14 -9 3 -18 -1 -21 -9z"/>
<path d="M2205 1040 c3 -5 8 -10 11 -10 2 0 4 5 4 10 0 6 -5 10 -11 10 -5 0&#10;-7 -4 -4 -10z"/>
<path d="M538 1033 c7 -3 16 -2 19 1 4 3 -2 6 -13 5 -11 0 -14 -3 -6 -6z"/>
<path d="M1140 1026 c-5 -5 -6 -15 -3 -22 4 -11 9 -12 19 -3 8 6 14 8 14 4 0&#10;-4 7 -2 15 5 8 7 15 16 15 20 0 10 -49 7 -60 -4z"/>
<path d="M578 1023 c6 -2 18 -2 25 0 6 3 1 5 -13 5 -14 0 -19 -2 -12 -5z"/>
<path d="M680 1020 c-20 -6 -21 -8 -5 -8 11 0 29 3 40 8 25 11 -1 11 -35 0z"/>
<path d="M1960 1011 c0 -11 25 -21 51 -21 23 0 25 15 3 24 -23 9 -54 7 -54 -3z"/>
<path d="M2118 1003 c7 -3 16 -2 19 1 4 3 -2 6 -13 5 -11 0 -14 -3 -6 -6z"/>
<path d="M1470 990 c0 -5 10 -10 23 -10 18 0 19 2 7 10 -19 13 -30 13 -30 0z"/>
<path d="M1527 969 c-6 -23 -1 -39 11 -39 9 0 8 47 0 55 -3 3 -8 -4 -11 -16z"/>
<path d="M1888 983 c7 -3 16 -2 19 1 4 3 -2 6 -13 5 -11 0 -14 -3 -6 -6z"/>
<path d="M900 970 c0 -5 5 -10 10 -10 6 0 10 5 10 10 0 6 -4 10 -10 10 -5 0&#10;-10 -4 -10 -10z"/>
<path d="M1644 970 c-23 -9 -41 -30 -27 -30 5 0 14 5 21 12 7 7 12 8 12 4 0&#10;-5 7 -3 15 4 17 14 50 6 40 -10 -3 -5 -1 -10 4 -10 14 0 14 13 -1 28 -14 14&#10;-34 14 -64 2z"/>
<path d="M1730 969 c0 -5 5 -7 10 -4 6 3 10 8 10 11 0 2 -4 4 -10 4 -5 0 -10&#10;-5 -10 -11z"/>
<path d="M1478 913 c6 -2 18 -2 25 0 6 3 1 5 -13 5 -14 0 -19 -2 -12 -5z"/>
<path d="M1545 910 c3 -5 13 -10 21 -10 8 0 14 5 14 10 0 6 -9 10 -21 10 -11&#10;0 -17 -4 -14 -10z"/>
<path d="M633 95 c0 -27 2 -38 4 -22 2 15 8 27 13 27 5 0 11 -12 13 -27 4 -26&#10;4 -26 6 5 1 22 -4 32 -13 32 -8 0 -17 8 -19 18 -3 9 -5 -5 -4 -33z"/>
<path d="M1132 95 c0 -27 2 -43 5 -35 3 8 13 24 22 35 15 18 15 19 -1 7 -14&#10;-12 -17 -10 -21 15 -2 16 -4 6 -5 -22z"/>
<path d="M750 120 c-4 -25 1 -54 10 -63 4 -5 5 3 3 17 -4 19 -1 26 10 26 9 0&#10;17 -10 19 -22 2 -12 9 -23 16 -24 7 -1 8 0 2 3 -12 6 -13 40 -1 45 5 2 3 9 -5&#10;16 -8 7 -14 8 -14 2 0 -14 -27 -13 -33 3 -4 8 -6 8 -7 -3z"/>
<path d="M978 117 c-7 -19 6 -60 20 -63 7 -1 8 0 2 3 -12 6 -13 40 -1 45 5 2&#10;3 8 -4 15 -10 9 -14 9 -17 0z"/>
<path d="M1515 120 c-4 -6 1 -7 11 -3 13 5 16 3 11 -10 -3 -9 -2 -19 4 -22 14&#10;-9 -1 -27 -18 -21 -8 3 -11 1 -8 -4 8 -14 32 -13 37 2 13 39 -18 88 -37 58z"/>
<path d="M1577 123 c-3 -5 -4 -21 -3 -38 1 -23 6 -30 21 -30 11 0 20 6 19 13&#10;-1 6 -2 23 -2 37 -2 23 -25 35 -35 18z m23 -13 c0 -5 -4 -10 -10 -10 -5 0 -10&#10;5 -10 10 0 6 5 10 10 10 6 0 10 -4 10 -10z m2 -35 c0 -5 -5 -11 -11 -13 -6 -2&#10;-11 4 -11 13 0 9 5 15 11 13 6 -2 11 -8 11 -13z"/>
<path d="M1635 120 c-4 -6 1 -7 11 -3 13 5 16 3 11 -10 -3 -9 -2 -19 4 -22 14&#10;-9 -1 -27 -18 -21 -8 3 -11 1 -8 -4 8 -14 32 -13 37 2 13 39 -18 88 -37 58z"/>
<path d="M1707 123 c22 -4 22 -6 8 -33 -22 -42 -17 -51 5 -10 25 46 25 50 -7&#10;49 -24 -2 -25 -2 -6 -6z"/>
<path d="M1754 115 c-4 -8 -1 -22 6 -30 6 -8 9 -19 5 -25 -3 -5 -4 -10 -1 -10&#10;10 0 33 55 29 68 -6 17 -32 15 -39 -3z m28 -10 c0 -5 -5 -11 -11 -13 -6 -2&#10;-11 4 -11 13 0 9 5 15 11 13 6 -2 11 -8 11 -13z"/>
<path d="M1814 115 c-4 -8 -1 -22 6 -30 6 -8 9 -19 5 -25 -3 -5 -4 -10 -1 -10&#10;10 0 33 55 29 68 -6 17 -32 15 -39 -3z m28 -10 c0 -5 -5 -11 -11 -13 -6 -2&#10;-11 4 -11 13 0 9 5 15 11 13 6 -2 11 -8 11 -13z"/>
<path d="M1890 125 c-1 -5 -1 -21 0 -34 1 -13 -4 -28 -12 -32 -9 -6 -3 -9 17&#10;-9 17 0 25 4 18 8 -6 4 -13 23 -16 42 -2 19 -5 31 -7 25z"/>
<path d="M1934 115 c-4 -8 -1 -22 6 -30 6 -8 9 -19 5 -25 -3 -5 -4 -10 -1 -10&#10;10 0 33 55 29 68 -6 17 -32 15 -39 -3z m28 -10 c0 -5 -5 -11 -11 -13 -6 -2&#10;-11 4 -11 13 0 9 5 15 11 13 6 -2 11 -8 11 -13z"/>
<path d="M1995 120 c-4 -6 1 -7 11 -3 13 5 16 3 11 -10 -3 -9 -2 -19 4 -22 14&#10;-9 -1 -27 -18 -21 -8 3 -11 1 -8 -4 8 -14 32 -13 37 2 13 39 -18 88 -37 58z"/>
<path d="M580 93 c0 -10 4 -14 8 -8 4 6 11 13 16 18 5 4 2 7 -7 7 -10 0 -17&#10;-8 -17 -17z"/>
<path d="M691 83 c-1 -27 3 -33 19 -33 16 0 20 6 19 33 -2 30 -2 30 -6 5 -6&#10;-36 -20 -36 -26 0 -4 25 -4 25 -6 -5z"/>
<path d="M834 96 c-9 -23 3 -46 23 -45 17 1 17 2 1 6 -22 6 -24 23 -2 23 9 0&#10;14 5 12 12 -7 19 -27 21 -34 4z"/>
<path d="M891 78 c2 -28 2 -29 6 -8 3 14 10 28 17 32 7 5 5 8 -6 8 -14 0 -18&#10;-8 -17 -32z"/>
<path d="M930 93 c0 -10 4 -14 8 -8 4 6 11 13 16 18 5 4 2 7 -7 7 -10 0 -17&#10;-8 -17 -17z"/>
<path d="M1027 103 c-11 -10 -8 -41 4 -49 16 -9 41 20 33 39 -6 17 -25 22 -37&#10;10z m28 -23 c0 -7 -6 -15 -12 -17 -8 -3 -13 4 -13 17 0 13 5 20 13 18 6 -3 12&#10;-11 12 -18z"/>
<path d="M1084 95 c-8 -20 2 -45 18 -44 10 0 10 2 1 6 -7 2 -13 13 -13 23 0&#10;10 6 21 13 23 9 4 9 6 -1 6 -7 1 -15 -6 -18 -14z"/>
<path d="M1224 95 c-8 -20 2 -45 18 -44 10 0 10 2 1 6 -7 2 -13 13 -13 23 0&#10;10 6 21 13 23 9 4 9 6 -1 6 -7 1 -15 -6 -18 -14z"/>
<path d="M1274 95 c-8 -21 2 -45 20 -45 19 0 29 29 15 46 -15 18 -28 18 -35&#10;-1z m31 -15 c0 -7 -6 -15 -12 -17 -8 -3 -13 4 -13 17 0 13 5 20 13 18 6 -3 12&#10;-11 12 -18z"/>
<path d="M1331 77 c2 -31 2 -31 6 -4 2 15 8 27 13 27 5 0 11 -12 13 -27 l4&#10;-28 2 28 c0 15 5 27 10 27 5 0 12 -12 14 -27 4 -27 4 -27 6 4 1 29 -1 31 -34&#10;31 -33 0 -35 -2 -34 -31z"/>
<path d="M592 65 c-11 -12 -10 -15 3 -15 8 0 15 7 15 15 0 18 -2 18 -18 0z"/>
<path d="M942 65 c-11 -12 -10 -15 3 -15 8 0 15 7 15 15 0 18 -2 18 -18 0z"/>
<path d="M1150 71 c0 -5 5 -13 10 -16 6 -3 10 -2 10 4 0 5 -4 13 -10 16 -5 3&#10;-10 2 -10 -4z"/>
</g>
</svg>