<svg width="115" height="73" viewBox="0 0 115 73" preserveAspectRatio="none" fill="none" xmlns="http://www.w3.org/2000/svg">
<path d="M51.8864 70.9206C55.0433 71.4801 63.7808 72.2715 67.0398 72.2843L67.0389 72.2833C80.0006 72.3614 90.9257 69.9103 100.001 64.8768L100.873 64.3819L100.873 64.3809C107.038 60.7898 110.726 57.0668 112.867 52.1674C113.863 49.8922 114.185 48.5158 114.396 45.7058C114.667 42.0766 114.316 39.8256 112.93 36.2556L112.931 36.2547C107.066 21.1358 88.3439 10.6788 59.9237 6.26094C52.8602 5.16667 44.8715 4.47602 40.0947 4.54944C38.571 4.57421 37.0192 4.65143 35.5008 4.7728C40.6908 3.88934 46.0728 3.70789 52.3188 4.17513C56.7042 4.50319 58.9671 4.80925 62.8623 5.571L63.9034 5.77815C64.8269 5.95927 65.4107 6.06133 65.7952 6.08223C66.0586 6.09653 66.3049 6.07852 66.5262 5.97141C66.6957 5.88937 66.8131 5.77232 66.8973 5.67013L66.9711 5.57478L66.9732 5.57201C67.2082 5.25547 67.3437 4.86291 67.2208 4.46141C67.1004 4.06821 66.7753 3.81044 66.4123 3.65764L66.4066 3.65526C65.9718 3.47814 64.7292 3.15407 63.3358 2.8272C62.2751 2.57836 61.0933 2.32084 60.043 2.11278L59.0466 1.92366C56.279 1.42369 48.8827 0.748057 46.2304 0.734799L46.2275 0.73458C23.5679 0.741193 6.89839 9.8341 2.03481 25.2043C1.54243 26.7356 1.47295 27.2504 1.25276 29.9904L1.25254 29.9933C1.07532 32.3623 1.0599 33.3688 1.20371 34.4425L1.20363 34.4435C2.64292 45.0468 11.5714 55.32 25.4996 62.7106L25.5005 62.7117C31.9243 66.1042 41.585 69.1082 51.8865 70.9197L51.8864 70.9206ZM67.1849 68.381C64.3575 68.3661 56.9437 67.8119 53.9017 67.3873L53.9028 67.3864C42.9786 65.8542 33.8941 63.3197 26.6374 59.7805L26.6364 59.7804C22.2673 57.6512 18.0345 54.8555 14.8846 52.0218L14.269 51.4538C8.77478 46.2649 5.53822 40.5524 4.60109 34.9238C3.66563 29.3048 5.01359 23.7289 8.76287 18.7723L9.14101 18.2992C10.1305 17.1046 11.7952 15.3586 12.555 14.7363L12.5592 14.7327L12.5582 14.7326C12.6675 14.6414 12.7393 14.5864 12.7911 14.5513C12.8109 14.5612 12.8393 14.5729 12.8752 14.5928C13.0861 14.7098 13.3325 14.8178 13.6677 14.7588C13.9299 14.7126 14.2158 14.5651 14.5519 14.3814C19.2136 11.8951 22.0812 10.7706 26.4062 9.72046L26.4072 9.72053C33.7183 7.94106 42.4886 7.65342 52.1501 8.89248L53.3967 9.06212C59.7289 9.95693 67.4921 11.5424 74.5201 13.3814L75.8448 13.739C89.3971 17.4824 98.7335 22.822 104.771 30.1936L105.174 30.6918C109.258 35.8405 111.106 40.9939 110.734 45.9656L110.734 45.9676C110.429 50.2403 108.526 53.749 104.496 57.3925L104.495 57.3924C96.8319 64.322 82.9553 68.4349 67.185 68.38L67.1849 68.381Z" fill="#D3C3B1" stroke="#D3C3B1"/>
</svg>
