<svg width="82" height="79" viewBox="0 0 82 79" fill="none" xmlns="http://www.w3.org/2000/svg">
<path d="M6.73874 5.70419C6.73874 6.11271 6.73874 6.52123 7.07676 11.5931C7.41477 16.6649 8.09081 26.3877 8.35456 32.1726C8.61832 37.9575 8.44931 39.5099 8.19323 42.3522C7.93716 45.1946 7.59915 49.2798 7.38276 51.5885C7.12768 54.3102 6.91031 55.0535 7.24704 55.6713C7.48841 56.114 8.59783 56.2073 9.96398 56.3336C11.3301 56.4598 13.1047 56.4598 14.1879 50.3729C15.2711 44.2859 15.6091 32.112 15.741 25.3912C15.8905 17.7729 15.5323 16.1103 15.1072 14.506C14.1976 11.073 12.0446 8.69011 11.3903 6.78244C11.2811 6.46399 11.5171 6.20432 11.8986 5.99635C12.8788 5.46209 14.2442 5.3749 17.1686 5.29196C19.5004 5.22582 23.5576 5.37242 26.0275 5.49622C29.2671 5.6586 32.0695 6.60541 35.4804 7.75918C37.5847 8.47099 38.5738 9.16795 39.1704 9.66189C39.4476 9.89133 39.5981 10.1558 39.6429 10.5681C39.6877 10.9803 39.6032 11.5522 39.3906 12.0511C39.1781 12.55 38.8401 12.9585 35.5815 13.2098C32.323 13.4611 26.1542 13.5428 22.6383 13.5441C18.4456 13.5456 16.9894 12.8892 15.7948 11.9013C15.2831 11.4782 15.2762 10.9135 15.613 10.6201C16.4775 9.86677 20.367 10.651 25.9455 11.7206C28.6636 12.2417 31.1015 12.9536 34.3076 13.2903C37.5136 13.627 41.4008 13.627 44.2483 13.7904C48.8062 14.052 52.1328 14.6174 54.6923 14.4131C55.666 14.3354 55.8997 13.8003 56.157 12.4869C56.4144 11.1734 56.6679 8.96741 56.545 7.74927C56.3934 6.24656 51.759 6.19937 45.8731 6.15852C42.8578 6.13759 39.2037 5.95178 34.8505 6.15604C33.3571 6.22611 33.3704 6.76882 33.5394 7.10183C33.8847 7.7823 35.2397 8.0959 37.7876 8.42519C42.0018 8.96983 45.2291 9.08625 47.6464 9.70151C52.5015 10.9372 55.9022 11.9731 56.3286 12.5909C56.586 13.1269 56.673 14.0331 56.842 15.1051C57.011 15.5236 57.3491 15.687 57.6973 15.8553" stroke="#64AEED" stroke-width="8" stroke-linecap="round"/>
<path d="M64.3552 22.5401C64.3552 22.6218 64.3552 22.7035 64.7355 28.179C65.1158 33.6544 65.8763 44.521 66.3103 50.2416C66.7444 55.9621 66.8289 56.2072 66.9992 56.3335C68.1589 57.1934 72.355 56.7073 75.0181 55.436C75.7088 55.1063 75.7863 53.9195 76.1717 51.6999C76.5571 49.4802 76.9796 45.9669 77.1973 42.3187C77.415 38.6705 77.415 34.9938 77.3727 32.7321C77.2888 28.2381 76.8209 25.4419 76.0949 23.783C75.773 23.0475 74.5213 22.5426 72.8607 22.1712C72.056 21.9912 71.2846 22.0449 70.8505 23.2297C70.4165 24.4144 70.332 26.7838 70.4152 28.658C70.4984 30.5323 70.7519 31.8395 70.9248 36.0671C71.0976 40.2947 71.1821 47.403 71.0131 55.2218" stroke="#F5D476" stroke-width="8" stroke-linecap="round"/>
<path d="M4.94623 62.897C4.94623 65.1896 5.28424 70.1464 6.01021 71.5589C6.31833 72.1583 7.33027 72.7139 8.52229 73.3737C9.59909 73.9697 11.5913 73.7909 13.5964 73.4232C15.028 73.1607 14.677 69.6834 14.5925 66.6727C14.551 65.1945 13.7423 64.4692 12.9754 63.8093C12.4599 63.3658 11.5248 63.3921 10.5017 63.5556C9.66091 63.6899 9.38654 65.1178 9.13047 66.3954C8.82723 67.9082 10.1496 69.2451 11.1304 69.8691C11.768 70.1563 12.4543 70.3246 13.1355 70.2838C13.4786 70.2429 13.8166 70.1612 14.1649 70.077" stroke="#3D995E" stroke-width="8" stroke-linecap="round"/>
<path d="M23.8957 73.5434C23.8957 72.7239 23.3887 68.9482 23.1697 66.6568C23.1174 66.1092 23.6371 65.7048 24.1902 65.3755C24.8057 65.009 25.7676 64.7961 28.5652 64.7132C30.7702 64.6478 34.5739 64.7937 36.9554 64.9175C39.3369 65.0413 40.1819 65.2047 43.3214 65.2888C46.4609 65.373 51.8691 65.373 54.7397 65.5773C57.6103 65.7815 57.7793 66.1901 57.8664 66.7682C58.0625 68.0706 57.7844 69.6563 56.6411 71.1394C55.9279 72.0644 53.8921 72.2956 51.5414 72.589C49.1906 72.8824 46.3175 72.9641 41.8375 72.8428C37.3575 72.7214 31.3577 72.3946 28.3936 72.3488C25.4296 72.303 25.6831 72.5481 26.3207 72.7153C26.9583 72.8824 27.9724 72.9641 29.0172 73.0483" stroke="#62B989" stroke-width="8" stroke-linecap="round"/>
<path d="M65.1235 63.8875C64.87 66.0192 64.3553 69.4112 64.8201 69.3382C67.7414 68.8791 67.4256 64.7145 67.9787 64.426C68.6163 64.2193 69.3026 64.1351 69.857 64.0125C70.0734 63.89 70.1579 63.6449 70.245 63.3923" stroke="#F68980" stroke-width="8" stroke-linecap="round"/>
<path d="M64.6113 5.95178C64.3552 10.391 64.6932 14.3648 65.2489 15.5619C65.9036 16.9722 68.9492 16.5981 71.9849 16.1871C72.7972 16.0771 73.3997 16.0212 74.0386 15.6114C75.9955 14.3564 75.3664 11.4086 74.8145 9.50715C74.3455 7.8909 72.6392 7.43979 71.8722 7.06841C71.5429 6.90892 71.2743 6.94214 70.9325 7.2281C68.8855 8.94037 70.0708 11.889 70.2884 12.758C70.3311 12.9282 69.8249 12.8843 69.4818 12.7209C68.8006 12.2306 68.1989 11.322 67.8148 10.3329C67.6842 9.91567 67.6842 9.67056 67.6842 9.41802" stroke="#4789CF" stroke-width="8" stroke-linecap="round"/>
<path d="M9.29955 1C8.36744 1 6.48786 1.16341 5.20878 1.73781C3.41079 2.54524 2.98478 4.62717 2.72871 6.75767C2.52288 8.47018 2.64164 11.5027 2.55714 13.632C2.47264 15.7612 2.30363 16.9051 2.13206 22.4374C1.96049 27.9698 1.79148 37.856 1.61991 43.5617C1.44834 49.2674 1.27933 50.4929 1.15002 54.9235C1.0207 59.3541 0.936196 66.9526 1.06167 71.1121C1.18715 75.2716 1.52516 75.7618 1.8683 76.0961C2.46975 76.6819 3.15123 76.9255 3.78885 77.1731C4.61973 77.4957 5.7094 77.4207 14.421 77.6274C22.6233 77.822 38.5124 77.589 46.8655 77.5061C55.5578 77.4198 56.2429 77.2572 57.0931 77.2164C59.6791 77.0921 61.9559 76.5145 63.4065 76.3919C64.1189 76.3317 66.2118 73.0755 69.7508 68.6635C71.7295 66.1965 74.2397 63.3329 77.0117 59.6215C78.4673 57.6727 79.036 56.9575 79.3753 54.666C79.6774 52.6257 80.0526 48.7796 80.228 43.0021C80.4034 37.2247 80.3189 29.6262 80.1064 24.3228C79.8938 19.0195 79.5558 16.2415 79.3817 14.4428C78.9687 10.1765 78.5264 7.68984 76.8273 5.30185C76.2436 4.48136 74.9618 4.06515 73.9312 3.60711C72.9005 3.14907 71.9709 2.82225 62.1121 2.44963C52.2533 2.07701 33.4933 1.66849 23.5756 1.41719C13.6579 1.16588 13.1509 1.08418 12.3827 1.04209C11.6144 1 10.6004 1 9.55562 1" stroke="#452626" stroke-width="2" stroke-linecap="round"/>
<path d="M1.61731 58.9355C1.70181 58.9355 1.78632 58.9355 5.21002 59.2215C8.63372 59.5075 15.3941 60.0794 27.0313 60.2106C38.6685 60.3418 54.9779 60.015 63.8444 59.9284C72.7109 59.8417 73.6405 60.0051 74.4573 60.0893C75.2742 60.1735 75.9502 60.1735 76.6468 60.1735" stroke="#452626" stroke-width="2" stroke-linecap="round"/>
<path d="M61.2824 3.72351C61.2824 3.80521 61.2824 3.88692 61.2401 14.142C61.1979 24.3971 61.1134 44.8232 61.1544 56.1219C61.1953 67.4206 61.3643 68.973 61.4514 70.9982C61.5385 73.0235 61.5385 75.4746 61.5385 78" stroke="#452626" stroke-width="2" stroke-linecap="round"/>
<path d="M81 19.0742C80.5775 19.0742 80.155 19.0742 71.1911 19.2376C62.2273 19.401 44.7349 19.7279 35.3012 19.8145C25.0225 19.9089 23.6447 19.5694 22.5807 19.4877C22.0192 19.4446 21.4322 19.2426 21.0008 19.1584C20.5693 19.0742 20.3158 19.0742 20.0162 28.5519C19.7165 38.0296 19.3785 56.985 19.0303 76.5147" stroke="#452626" stroke-width="2" stroke-linecap="round"/>
<path d="M28.912 33.9292C30.2269 33.1097 32.4061 31.4583 33.3017 30.6338C33.6481 30.2996 33.7748 30.1362 33.7767 33.3202C33.7787 36.5041 33.6519 43.0405 33.5213 49.7749" stroke="#452626" stroke-width="6" stroke-linecap="round"/>
<path d="M44.4044 38.8811C46.4325 38.3909 48.0266 37.6072 49.0067 36.537C49.8845 35.5786 50.1648 34.3477 50.3146 33.2769C50.4406 32.3758 49.8703 31.5401 49.232 30.8394C48.6618 30.2134 47.5259 30.0929 46.5241 29.9072C45.9102 29.7935 45.389 29.9667 44.793 30.2953C43.2968 31.1204 42.786 33.7511 42.6964 35.923C42.652 36.9996 43.5888 38.1321 44.8845 39.51C45.6565 40.3308 46.8986 41.1738 47.7615 41.9227C49.2013 43.1723 49.9497 44.3231 50.4401 45.2497C50.8396 46.0047 50.7217 46.7594 50.4458 47.3975C49.8018 48.8871 47.1879 48.7425 45.3711 48.6002C44.5781 48.538 43.9806 47.8797 43.4268 47.2422C42.1982 45.8277 42.2713 43.6769 42.6733 41.6943C43.1189 40.8692 44.0139 40.041 45.2699 39.2172C45.8922 38.8427 46.4837 38.5567 47.0932 38.2621" stroke="#452626" stroke-width="6" stroke-linecap="round"/>
<path d="M28.912 33.9292C30.2269 33.1097 32.4061 31.4583 33.3017 30.6338C33.6481 30.2996 33.7748 30.1362 33.7767 33.3202C33.7787 36.5041 33.6519 43.0405 33.5213 49.7749" stroke="#64AEED" stroke-width="4" stroke-linecap="round"/>
<path d="M44.4044 38.8811C46.4325 38.3909 48.0266 37.6072 49.0067 36.537C49.8845 35.5786 50.1648 34.3477 50.3146 33.2769C50.4406 32.3758 49.8703 31.5401 49.232 30.8394C48.6618 30.2134 47.5259 30.0929 46.5241 29.9072C45.9102 29.7935 45.389 29.9667 44.793 30.2953C43.2968 31.1204 42.786 33.7511 42.6964 35.923C42.652 36.9996 43.5888 38.1321 44.8845 39.51C45.6565 40.3308 46.8986 41.1738 47.7615 41.9227C49.2013 43.1723 49.9497 44.3231 50.4401 45.2497C50.8396 46.0047 50.7217 46.7594 50.4458 47.3975C49.8018 48.8871 47.1879 48.7425 45.3711 48.6002C44.5781 48.538 43.9806 47.8797 43.4268 47.2422C42.1982 45.8277 42.2713 43.6769 42.6733 41.6943C43.1189 40.8692 44.0139 40.041 45.2699 39.2172C45.8922 38.8427 46.4837 38.5567 47.0932 38.2621" stroke="#64AEED" stroke-width="4" stroke-linecap="round"/>
</svg>
