<svg width="80" height="79" viewBox="0 0 80 79" fill="none" xmlns="http://www.w3.org/2000/svg">
<path d="M6.47399 20.916C6.47399 19.9902 6.24254 15.6557 5.85327 9.65664C5.71423 7.5138 5.61831 7.2065 5.57857 6.77749C5.53882 6.34848 5.53882 5.80843 6.27176 5.53021C7.0047 5.252 8.47057 5.252 10.8845 5.48346C13.2984 5.71491 16.6159 6.17782 24.767 6.53201C32.9182 6.88621 45.8024 7.11766 52.7098 7.27547C60.159 7.44566 61.3308 7.58992 62.4203 7.62849C64.0697 7.6869 67.3159 8.13231 69.9788 8.36844C71.3881 8.49341 72.4009 8.75888 72.9059 8.95175C74.8746 9.70371 74.2735 14.0426 74.4676 16.0754C74.5413 16.8479 74.5073 18.162 74.1987 18.9919C73.8901 19.8219 73.2729 20.1305 70.0232 20.3281C66.7735 20.5256 60.91 20.6028 57.0408 20.5268C53.1715 20.4508 51.4742 20.2193 45.0064 20.023C38.5385 19.8266 27.3516 19.6723 20.4313 19.2456C13.5111 18.8189 11.1966 18.1246 9.84994 17.574C8.5033 17.0234 8.1947 16.6377 7.95857 16.2846C7.72244 15.9316 7.56813 15.623 7.8744 15.1168C8.18067 14.6107 8.95218 13.9163 10.4297 13.4043C11.9073 12.8923 14.0675 12.5837 22.8955 12.7719C31.7235 12.9601 47.1537 13.6545 55.5655 13.935C63.9774 14.2156 64.9032 14.0613 65.843 13.9818C66.7829 13.9023 67.7087 13.9023 68.6626 13.9023" stroke="#F68980" stroke-width="10" stroke-linecap="round"/>
<path d="M1.64391 15.3145C1.79821 4.92946 1.79821 4.7845 1.79821 3.84934C1.79821 3.02029 2.84907 1.86094 3.9023 1.51142C4.48561 1.47284 6.16671 1.04292 16.4862 1.00527C26.4165 0.969029 45.3185 1.12333 55.7234 1.35946C66.1283 1.59559 67.9899 1.86016 69.4622 2.21748C72.0245 2.83936 73.9015 3.38644 75.5653 4.78918C76.3029 5.41107 76.8516 6.26391 77.1609 8.59648C77.3971 10.3768 77.7057 13.3086 77.7805 21.849C77.8553 30.3894 77.701 44.1223 77.2264 52.7772C76.7518 61.4322 76.0639 64.9276 75.3561 67.2758C74.2689 70.8821 72.7984 71.588 71.7019 72.5841C70.2991 73.8582 69.214 75.0988 66.5584 75.8957C64.2252 76.5959 62.8728 77.8209 56.7392 77.7275C53.977 77.6854 49.3725 78.1927 46.4933 77.918C43.6142 77.6433 41.994 77.3347 40.0711 77.1407C38.1481 76.9466 35.9879 76.8695 33.9539 76.7117C31.9199 76.5539 30.0707 76.2612 27.8706 76.2067C23.2042 76.091 20.0233 75.9211 18.104 75.8957C15.1851 75.8572 12.9334 75.7558 11.8033 75.6619C9.42449 75.4644 5.5736 74.7401 3.6627 72.7734C2.26112 71.3309 1.58465 69.9457 1.13424 68.135C1.01735 67.6651 0.940196 67.2022 1.0606 56.5577C1.181 45.9131 1.48961 25.6995 1.64391 15.3145Z" stroke="#452626" stroke-width="2" stroke-linecap="round"/>
<path d="M2.26575 23.9556C2.6515 24.1099 3.03726 24.2642 4.27752 24.3437C5.51779 24.4231 7.60087 24.4231 19.8995 24.5775C32.1981 24.7318 54.6491 25.0404 77.5466 25.3583" stroke="#452626" stroke-width="2" stroke-linecap="round"/>
<path d="M19.0988 41.7234C19.2531 40.9519 20.0269 39.3972 21.7348 37.2966C23.5288 35.0899 27.0313 34.7892 29.9876 34.7097C31.3253 34.6737 32.3267 35.0931 33.1134 35.6378C34.6499 36.7017 35.228 38.9062 35.193 41.4312C35.1736 42.8245 34.1549 44.3419 32.4073 46.3712C30.6597 48.4005 27.9595 50.8693 26.1441 52.797C23.2687 55.8501 21.9884 58.7762 21.0533 61.1889C20.7353 62.2129 20.7353 62.8301 22.857 63.2638C24.9786 63.6975 29.2219 63.9289 33.5938 64.1674" stroke="#452626" stroke-width="4" stroke-linecap="round"/>
<path d="M52.1101 33.1527C53.1598 33.3865 54.0178 33.6998 54.6351 34.0084C54.953 34.1674 55.2616 34.3217 55.5352 34.4783C55.8087 34.6349 56.0401 34.7892 56.2751 34.9459C57.5294 36.1265 59.3341 38.2632 59.4675 42.2332C59.5447 44.529 59.5447 48.3866 59.4254 50.9115C59.3062 53.4365 59.1081 54.603 58.8001 55.6493C58.2167 57.6307 56.7209 60.4669 54.1558 62.815C52.76 64.0927 50.6141 65.1254 48.3496 64.2026C46.9153 63.6181 45.6379 62.6581 45.0063 61.1972C44.5025 60.0317 44.1912 58.6181 44.1928 54.9596L44.1928 54.782C44.1939 51.9586 44.1956 47.4575 44.3891 44.6506C44.6615 40.6995 45.0138 37.4416 48.4898 34.7004C49.9662 33.5361 51.1576 32.9406 52.1101 33.1527Z" stroke="#452626" stroke-width="4" stroke-linecap="round"/>
<path d="M30.5546 9.92789C30.4003 9.31068 30.0122 8.76127 29.1589 8.41058C28.6431 8.19862 27.8426 8.29135 27.368 8.40707C26.8934 8.5228 26.7391 8.75426 26.6211 9.10494C26.503 9.45563 26.4258 9.91854 26.4632 10.3113C26.6072 11.8229 29.063 12.7287 30.2401 13.665C31.147 14.3864 30.7884 15.7703 30.6727 16.2753C30.5213 16.936 29.7784 17.3297 28.9636 17.5635C28.4575 17.643 27.7631 17.643 27.3283 17.2958C26.8934 16.9487 26.7391 16.2543 26.5801 15.3051M36.3994 8.29134C36.6308 8.29134 36.8623 8.29134 37.483 8.17561C38.1037 8.05989 39.1067 7.82843 40.0091 7.7092C40.9115 7.58997 41.683 7.58997 42.4779 7.58997M35.4642 8.29134C36.0089 12.9508 36.3199 16.5489 36.7465 17.0936C37.4047 17.484 38.4965 17.7202 39.7414 17.8371C40.292 17.8768 40.6777 17.8768 41.309 17.643M36.1656 13.4348C36.1656 13.3576 36.1656 13.2805 37.2457 13.2021C38.3258 13.1238 40.486 13.0467 42.7117 12.9672M47.3876 18.812C47.3876 17.9656 46.7704 13.4581 46.2584 10.5205C46.1704 10.0158 46.2186 9.62396 46.4886 9.34808C47.1302 8.69261 48.5495 8.99038 49.7559 9.4568C50.6363 9.79718 50.9716 10.4703 51.1656 11.1307C51.3872 11.8848 51.4415 12.7287 51.0534 13.5458C50.511 14.1315 49.8845 14.4471 49.2626 14.6411C48.9493 14.758 48.6407 14.9123 47.8552 15.0713" stroke="#F1ECE6" stroke-width="2" stroke-linecap="round"/>
</svg>
