<svg width="483" height="592" viewBox="0 0 483 592" fill="none" xmlns="http://www.w3.org/2000/svg">
<path d="M27.1304 21.9428C27.1304 28.0635 28.4934 37.5822 29.5363 49.8747C30.5273 61.5552 32.6237 76.4759 33.6666 87.407C34.781 99.0868 36.7541 112.627 38.1377 126.28C40.369 148.297 42.9496 161.755 44.3333 181.52C46.3525 210.363 50.5081 236.022 52.2532 265.786C52.8361 275.728 53.9776 312.97 54.6591 365.487C55.0731 397.386 59.471 414.851 60.8547 432.65C62.5173 454.037 65.6665 468.811 66.7094 480.438C67.6502 490.926 70.499 517.776 72.5539 535.718C73.0437 539.995 74.6294 555.4 75.6516 575.195C75.98 581.552 78.7184 580.129 81.4754 579.095C92.8162 574.843 108.25 574.642 132.991 572.943C171.107 570.326 199.201 571.92 215.939 570.896C255.094 568.502 283.191 569.873 291.06 568.849C318.087 565.334 331.992 566.454 345.116 564.755C364.28 562.274 376.765 562.36 392.914 560.661C433.721 556.368 442.189 563.711 449.779 563.394C472.143 562.459 451.193 503.037 448.777 490.09C445.513 472.599 446.361 445.188 441.219 404.554C438.524 383.263 439.484 369.959 438.451 308.456C437.453 248.987 438.1 132.114 436.056 71.911C434.011 11.7077 429.922 11.7077 426.112 12.0454C412.362 13.2643 403.034 17.8488 392.708 19.5478C377.699 22.0174 355.576 23.9899 341.429 25.6889C330.005 27.061 310.885 30.131 286.413 33.5291C267.768 36.118 254.32 34.9006 223.281 35.9241C194.3 36.8797 138.402 36.2721 107.91 35.5966C74.0098 33.57 68.4545 31.5025 58.5417 30.479C50.6733 30.131 37.0432 30.131 23 30.131" stroke="#D28E88" stroke-width="5" stroke-linecap="round"/>
</svg>
