<svg width="191" height="207" viewBox="0 0 191 207" fill="none" xmlns="http://www.w3.org/2000/svg">
<path d="M97.585 65.5156C99.8516 63.9384 102.967 64.4972 104.544 66.7638C105.217 67.73 105.748 69.0333 106.161 70.1662C106.63 71.4504 107.14 73.0744 107.674 75.0074C108.746 78.8814 109.966 84.177 111.182 90.8371C113.734 104.821 107.528 117.48 102.964 126.079C100.244 131.204 96.2178 134.281 92.0625 136.252C92.1465 136.512 92.231 136.771 92.314 137.03C94.7936 144.76 93.139 153.155 90.3678 160.305C87.5558 167.561 83.3098 174.278 79.5776 179.1C74.6131 185.515 66.9486 188.778 59.4776 190.453C51.9291 192.145 43.8679 192.376 37.2414 192.168L36.2557 192.139L35.3557 191.735C31.329 189.933 28.2286 188.043 25.8595 186.338C25.7168 186.642 25.5716 186.943 25.42 187.235C24.7638 188.496 23.8039 190.061 22.4274 191.252C20.9172 192.558 18.4108 193.763 15.4444 192.791C13.1934 192.054 11.6045 190.297 10.6733 189.112C9.60105 187.747 8.63597 186.125 7.81466 184.544C6.17481 181.387 4.79075 177.771 4.09191 175.202C3.75254 173.955 3.46536 172.582 3.48857 171.237C3.51413 169.765 3.92765 167.95 5.37974 166.456C6.67524 165.124 8.23875 164.654 9.11537 164.442C10 164.228 11.0355 164.098 11.7241 164.003C15.9984 163.408 19.6495 162.945 22.4192 162.66C23.7993 162.518 25.0099 162.415 25.9923 162.364C26.7943 162.322 27.957 162.279 28.9299 162.453C31.6477 162.941 33.4562 165.54 32.9687 168.257C32.7617 169.411 32.1727 170.4 31.3569 171.12C31.3608 172.16 31.0412 173.21 30.3752 174.11C29.9691 174.659 29.8188 174.948 29.6218 175.473C29.5263 175.728 29.434 176.003 29.3286 176.333C29.3553 176.362 29.3811 176.391 29.4083 176.42C31.1787 177.944 34.054 180.086 38.553 182.2C44.5496 182.34 51.2502 182.049 57.2899 180.695C63.7439 179.247 68.7573 176.743 71.6696 172.98C74.9725 168.712 78.6632 162.832 81.0427 156.692C83.4629 150.448 84.2552 144.645 82.7922 140.084C82.7085 139.823 82.623 139.565 82.5402 139.31C79.0015 140.054 75.78 140.264 73.0336 139.984C70.2772 139.702 67.1581 138.836 65.0815 136.615C62.4466 133.797 62.0492 130.071 62.1642 127.357C62.2857 124.492 63.0198 121.614 63.8084 119.346L63.952 118.966C64.7139 117.104 66.1225 115.814 67.7512 115.114C69.2845 114.455 70.8186 114.394 71.8988 114.442C73.9793 114.535 76.2871 115.183 77.2805 115.425C82.1245 116.608 85.167 120.408 87.1972 124.081C87.677 124.949 88.1293 125.869 88.5625 126.824C90.9273 125.563 92.8206 123.859 94.1306 121.391C98.7439 112.698 103.211 102.863 101.344 92.6325C100.169 86.1954 99.0111 81.1988 98.0357 77.6729C97.547 75.9062 97.1162 74.5522 96.7663 73.5927C96.4647 72.7655 96.2967 72.4393 96.288 72.4096L96.3368 72.4749C94.7597 70.2084 95.3187 67.093 97.585 65.5156ZM14.1046 173.77C14.6888 175.556 15.6175 177.873 16.6886 179.935C16.887 180.317 17.0846 180.676 17.2765 181.011C17.5442 180.35 17.7977 179.643 18.0412 178.926C16.5256 177.446 16.151 175.233 16.9359 173.389C16.036 173.507 15.0912 173.634 14.1046 173.77ZM72.6594 124.606C72.3813 125.708 72.1969 126.804 72.1555 127.781C72.1083 128.896 72.2598 129.451 72.3456 129.675C72.5579 129.76 73.0716 129.936 74.0488 130.036C75.2656 130.16 76.8993 130.127 78.9128 129.812C78.7581 129.504 78.6035 129.205 78.445 128.919C76.8786 126.085 75.6591 125.323 74.9092 125.139C74.1446 124.953 73.5659 124.799 72.8939 124.654C72.8132 124.637 72.7347 124.621 72.6594 124.606Z" fill="#D28E88"/>
<path d="M36.9946 34.6511C37.028 34.3328 36.1283 17.6077 36.8863 6.83796C37.1255 3.43905 46.4152 5.14304 53.3897 5.70389C56.0907 5.92109 56.979 6.90499 57.4771 8.62636C57.9752 10.3477 58.0279 13.0078 56.8203 15.078C52.347 22.7468 45.5415 20.4655 43.9315 21.292C47.0378 24.6043 53.3751 28.3158 59.1464 30.7614C61.4109 31.8436 62.3266 32.6033 63.3744 32.3915" stroke="#D28E88" stroke-width="8" stroke-linecap="round"/>
<path d="M92.8357 10.3454C90.9254 9.48132 87.4252 7.76671 84.2136 8.09337C82.5741 8.26012 81.1925 9.76725 80.3419 11.3572C79.4914 12.9471 79.2847 14.9163 79.6362 16.3106C80.9927 21.6926 88.4068 23.6157 93.3485 27.6433C95.5422 29.4313 94.5192 32.6327 93.6374 34.7121C93.113 35.9488 91.4084 36.9818 89.0202 37.415C86.6319 37.8482 83.3499 37.5038 81.1841 37.1107C79.0183 36.7175 78.0682 36.286 77.0892 35.8414" stroke="#D28E88" stroke-width="8" stroke-linecap="round"/>
<path d="M109.847 11.1248C110.876 17.2254 111.976 29.0749 113.636 33.9497C116.176 33.6079 119.035 28.8804 121.86 22.6562C123.355 19.6107 124.978 16.7946 126.65 13.8932" stroke="#D28E88" stroke-width="8" stroke-linecap="round"/>
<path d="M140.678 14.3596C141.197 15.7413 141.707 20.4603 141.886 28.337C141.822 32.2064 141.443 35.8166 141.326 38.5141C141.209 41.2116 141.365 42.887 141.526 44.6132" stroke="#D28E88" stroke-width="8" stroke-linecap="round"/>
<path d="M141.359 17.4475C141.428 16.7911 142.224 15.5372 144.031 14.2186C145.95 12.8187 149.351 14.5958 152.502 16.4246C156.458 18.7201 157.512 23.1542 157.919 25.7005C158.155 27.1818 156.909 29.0937 155.592 30.4788C152.531 32.6764 149.715 33.7384 146.694 33.9241C144.692 33.885 141.739 33.5751 138.695 33.2558" stroke="#D28E88" stroke-width="8" stroke-linecap="round"/>
<path d="M186.163 12.0935C186.094 12.7499 186.025 13.4063 185.023 16.6294C184.021 19.8525 182.089 25.6223 180.99 29.5792C179.891 33.5362 179.684 35.5053 179.472 37.5342" stroke="#D28E88" stroke-width="8" stroke-linecap="round"/>
<path d="M175.027 51.1447L176.022 51.249" stroke="#D28E88" stroke-width="8" stroke-linecap="round"/>
</svg>
