<svg width="50" height="57" viewBox="0 0 50 57" fill="none" xmlns="http://www.w3.org/2000/svg">
<path d="M41 3.50011C40.67 3.50011 38.025 3.17011 32.3775 2.75261C18.7122 1.74238 12.01 5.16011 9.925 6.24511C6.04243 8.26554 4.18 19.9301 3.335 27.8076C2.82007 32.608 2.5 37.1501 2.995 40.0626C3.42425 42.5882 8.14 43.4951 15.5225 44.3276C26.9684 45.6183 34.99 44.6701 37.2325 44.0051C39.9334 43.2042 42.16 42.6701 43.5725 41.2626C45.9063 38.937 46.33 34.8501 46.9125 29.7101C48.6619 14.2732 46.01 8.53011 44.34 5.59011C43.84 5.17011 43.18 4.84011 42.5925 4.58761C42.005 4.33511 41.51 4.17011 41 4.00011" stroke="#D28E88" stroke-width="5" stroke-linecap="round"/>
<path d="M15.5 44.5C15.17 44.5 14.84 44.5 14.4225 44.83C14.005 45.16 13.51 45.82 12.1 46.985C10.69 48.15 8.38 49.8 6.5 51.5" stroke="#D28E88" stroke-width="5" stroke-linecap="round"/>
<path d="M35 45.5C35.165 45.5 35.33 45.5 36.4875 46.82C37.645 48.14 39.79 50.78 42.5 54.5" stroke="#D28E88" stroke-width="5" stroke-linecap="round"/>
<path d="M6.5 23.5C7.16 23.5 14.43 24.49 27.735 25.9075C34.11 26.335 39.72 26.17 42.94 26.0025C46.16 25.835 46.82 25.67 47.5 24.5" stroke="#D28E88" stroke-width="5" stroke-linecap="round"/>
<path d="M29 5C29 5.165 29 5.33 28.9175 8.55C28.835 11.77 28.67 18.04 28.5 24.5" stroke="#D28E88" stroke-width="5" stroke-linecap="round"/>
<path d="M15.5 33V33.5" stroke="#D28E88" stroke-width="5" stroke-linecap="round"/>
<path d="M37 34L36 35.5" stroke="#D28E88" stroke-width="5" stroke-linecap="round"/>
</svg>
